<svg xmlns="http://www.w3.org/2000/svg" width="10cm" height="7.142857cm" viewBox="0 0 189 135">
  <path d="M 137.667 27 L 135 24.667 L 131.333 23 L 128.667 23 L 125.333 25 L 125.667 25.333 L 128.667 24 L 130 24 L 133 25 L 136 27.333 C 139.262 31.819 140.336 35.951 142.667 41 L 146.333 45.667 L 145.667 48 L 146.667 49 L 148.667 54.667 L 148.667 56.667 C 152.357 66.508 151.867 79.795 150.667 90 L 149.667 92 L 145 95.667 L 133.333 101.667 L 102.667 114.667 L 101 114.667 L 98.667 115.667 L 96.667 115.667 L 89.667 117.667 L 77.667 119.667 L 75 120.667 L 73.333 120.667 L 71.333 121.667 L 65.667 122.667 L 54.667 123.333 L 53.333 122.667 L 51.333 122.667 C 42.115 117.136 45 102.63 45 94.333 L 45.667 90.667 L 48 89 L 56.333 87.333 L 87.667 85 C 98.643 80.884 109.187 78.36 119 71 L 122 65.667 L 124.667 55 L 127 36 L 129.667 31.333 L 132.667 28.667 L 133.667 30 L 132.667 32.667 L 132.667 35.667 L 131.667 41 L 131.667 47 L 133 48.333 L 134.333 47.667 L 133.333 43.667 L 134 42 L 135 28.667 L 133.667 28.667 L 132.333 27 L 129 26 L 125.333 26 L 124.667 26.667 L 123.333 26.667 C 115.655 30.506 126.795 27.128 128.333 28.667 L 125 30.667 L 123.667 32.667 L 117.333 38.667 L 99.333 53.333 L 92 57.667 L 91.333 57 L 92 56 L 91 55 L 91 47.333 L 92 42.667 L 91 42.333 L 89.667 43.333 L 89 48.667 L 89 54.333 L 89.667 56 L 91.333 57.333 L 90.333 58.333 L 84.333 60 L 74 59.667 L 64.667 60.667 L 56.667 62.667 L 52.667 64.667 L 46.333 69.667 L 39.667 74 L 39 73.333 L 38 69.667 L 38 64.333 L 39 60 L 41 56 L 41 54.333 L 42 52.667 L 42 51.667 L 44 48.333 L 45 45.333 L 48.333 40 L 54.667 34.333 C 51.038 34.333 47.91 40.757 45.667 43 L 44.667 43 L 45.333 44.333 C 42.662 45.669 38.299 53.287 40.333 56 L 39.333 57 L 38.667 56.667 L 39 58.333 L 37.667 59.333 L 38 61.333 L 37.333 62 L 36.667 61.667 L 36.333 69 L 37.667 75.667 L 39 76 L 41.333 74.667 L 43.667 78.333 L 49.333 83.667 L 47.667 85.333 L 47 87 L 43.667 90 C 42.519 101.099 40.318 113.982 48.333 123 C 58.197 127.552 70.397 124.138 80.333 121 L 83.333 121 L 86 120 L 96.333 118 L 97 118.667 L 96.333 130.667 L 94.667 133 L 94.667 134 L 96.667 134 L 98 131.667 L 98.667 128.667 L 98.667 118 L 99.667 117 L 104.333 116 L 126.333 107 L 132 104 L 133 104 L 143 99 L 148 96 L 151.333 93 L 153 88.333 L 153 73.667 L 153.667 73 L 154.333 73.667 L 154.667 78 L 155.333 79.667 L 155.333 87 L 154.333 91.667 L 152 96.667 L 146.667 102.333 L 140 108 L 134.333 115.667 L 117.333 133 L 117.333 133.667 L 119 134 L 132 121 L 139 113 L 142 108.667 L 152.333 99.667 L 155 95.333 L 157 90 L 157 76.667 L 153.333 65 L 153 57.333 L 151 50.333 L 144 39.667 C 141.689 34.659 140.816 31.724 137.667 27 Z M 65.667 26.333 L 67 27.333 L 66.667 28 L 72 26.667 L 77.333 26.667 C 87.555 28.37 98.303 30.197 108.667 29.333 L 108.667 27.667 L 104 28 L 103.333 27.333 L 107.667 24.333 L 111.333 20 L 112.667 20.333 L 111.667 18.667 L 103 14.667 L 98 14.667 L 95 16.333 L 90.667 20.667 L 87.667 26 L 85.333 25.667 L 84.333 24.667 C 85.534 18.06 91.514 11 98.667 11 L 108.333 16 L 113.333 17.667 C 122.681 16.999 132.481 17.876 141.333 21 L 143.667 23.333 L 151.333 35 L 162.667 54 L 167.333 63.667 L 168.667 72 L 169.333 86.667 L 168.667 92.667 L 166.667 99.667 L 166.667 101.667 L 164.667 110.667 L 164.667 120.667 L 168.667 129.667 L 172.333 134 L 174.667 134 L 174.667 132.667 L 173.667 132.667 L 172 131 L 169.333 127 L 167 121.667 L 166.333 118.667 L 166.333 114.667 L 167.333 106.333 L 168 105 L 168 102.333 L 169 100.333 L 169 98 L 171 91 L 171 75 L 169 62.667 L 165 54.333 L 153 34 L 146 23.333 L 142.667 19.667 C 133.164 15.281 122.753 15.667 112.333 15.667 L 105.667 12.667 L 100.667 9.667 L 96.667 9 L 94 10 L 87.333 15 L 83.333 19.667 L 74 21.333 L 71.667 22.667 L 70 25 L 65.667 26.333 Z M 85 62 L 86 61 L 88 61 L 89.667 60 L 91 60 L 94.667 58 L 96.667 57.667 L 104.333 66 L 105.333 66 L 106.333 64.667 L 107 65.333 L 106.667 73 L 105.667 74.667 L 106.667 75 C 109.27 73.048 107.645 69.022 109.667 67 L 110.333 67.667 L 111 73.667 L 108.333 75.667 L 105.333 77 L 98.333 67.333 L 93.667 62.667 L 91.667 62.333 C 88.581 65.419 92.583 72.248 93 76 L 92 77 L 84.333 77 L 83.333 76 L 83.333 70 L 84 64.667 L 85 62 Z M 145.667 73.667 L 144 73.667 L 143.667 76.333 L 142.667 77.667 L 142.667 78.667 L 139.667 83 L 137 85.667 L 131.667 89.667 L 130.667 89.667 L 128 91.667 L 117 96.333 L 116 95.667 L 116.667 95 L 116 88.667 L 113 82.667 L 111.333 80.667 L 110.333 80.667 L 110.667 82.667 L 112.667 86 L 114.333 90.333 L 115 95.667 L 115.667 96.333 L 114.667 97.333 L 110.333 99 L 109.667 98.333 L 110 94.333 L 109 91.667 L 109 90 L 108 88 L 108 83.333 L 107 83 L 106 84.333 L 106 86 L 108.333 95.333 L 107.667 99.667 L 105.333 101.333 L 95.333 105.667 L 77.667 114.667 L 74 117 L 71.667 119 L 71.667 119.667 L 74 119 L 80.333 115 L 81.333 115 L 84.333 113 L 85.333 113 L 92.667 109 L 93.667 109 L 97 107 L 120 97 L 121 97 L 122.333 96 L 123.333 96 L 131.667 91.667 L 137 88 L 141.667 83.333 L 145 77.333 L 145.667 73.667 Z M 127 31 L 127.667 31.667 L 125.667 34.333 L 124.667 37 L 123.667 50 L 122.667 52.667 L 121.667 60 L 120 65 L 119 65.667 L 112.333 60.667 L 110.667 60.667 L 109.667 61.667 L 109 61 L 108.667 59.333 L 108 59.333 L 107.333 63 L 106.667 63.667 L 106 63 L 106 54.667 L 105.333 53.667 L 106 53 L 113.333 60 L 114.333 60 L 115 59.333 L 115 50 L 113 45.667 L 113.667 45 L 116.667 48 L 118.667 49 L 120 48 L 121 45.333 L 121 40.333 L 119.667 39 L 127 31 Z M 93 64.667 L 97 68.667 L 102.333 75.667 L 103 77.667 L 102 78.667 L 95.333 81 L 94.667 80.333 L 95 74 L 94 72.333 L 93 66.667 L 92.333 65.667 L 93 64.667 Z M 75 61 L 79 61 L 81.333 61.667 L 82.333 61.333 L 83 62 L 81.667 66.333 L 81.667 74.667 L 81 75.333 L 78.333 71.667 L 76 67 L 74.333 62.333 L 75 61 Z M 69.667 62 L 71.667 61.667 L 72.667 62.667 L 73.667 66.333 L 76.333 71.333 L 75.667 72.667 L 74.667 72.667 L 73.667 73.667 L 71 73.667 L 69 73 L 68 72 L 69 62.667 L 69.667 62 Z M 155.333 114.667 L 154.333 114.667 L 152.667 115.667 L 152 116.667 L 151.333 116.667 L 149.333 118.667 L 139.667 125.667 L 132.333 133 L 132.333 133.667 L 134.667 134 L 135.333 132.667 L 141.667 126.667 L 154.333 117 L 155.333 115.667 L 155.333 114.667 Z M 53.667 66.333 L 57 68.667 L 56.667 73 L 55.667 75.333 L 54.333 76.667 L 51 73.667 L 49 71 L 49 70 L 53.667 66.333 Z M 61.333 63.333 L 64.667 63 L 66 62.333 L 67 63 L 66.333 71 L 66.667 73 L 66 73.667 C 63.044 72.189 58.027 66.639 61.333 63.333 Z M 119.667 113 L 117.667 113.667 L 113.333 117.667 L 108.667 123.333 L 102.667 133 L 103 134 L 105 133.667 L 110.333 124.333 L 116 117.333 L 119 114.667 L 119.667 113 Z M 46.667 71 L 51.333 77 L 50.667 81 L 50 81.667 L 49.333 81.667 L 46.333 79 L 44 75 L 42.667 74 L 46.667 71 Z M 51 93.333 L 50 97.667 L 51.667 107 L 54.667 113.333 L 57.667 116.333 L 58.667 115.667 L 58.667 115 L 57 113.667 L 54 107.333 L 52 99.333 L 52 93.333 L 51 93.333 Z M 109.667 19.667 L 102.667 25.667 L 101.667 27.667 L 98.333 27.667 L 97.667 27 L 99 26 L 105.333 17.667 L 109.667 19.667 Z M 74.667 76 L 80.667 81 L 81.333 82.333 L 80.667 83.667 L 73.667 84 L 73 83.333 L 73.333 79.333 L 74 76.667 L 74.667 76 Z M 111 46.333 L 112.667 48.667 L 113.333 51.667 L 113.667 56 L 113 56.667 L 106.333 50.667 L 111 46.333 Z M 112 63 L 115 64.667 L 118.667 68 L 117 70.333 L 113.667 72.667 L 112.667 72 L 112.667 70 L 112 68.333 L 112 64.667 L 111.333 63.667 L 112 63 Z M 93 79 L 92.667 81 L 91.667 82 L 83.667 83.333 L 83 82.667 L 83 79.667 L 83.667 79 L 91.667 79 L 92.333 78.333 L 93 79 Z M 75.667 90 L 74.667 92 L 75.667 100.333 L 77.667 105.667 L 79 107 L 80.667 107 L 80.333 105.667 L 79 104.333 L 77 96.667 L 77 90.667 L 76.667 90 L 75.667 90 Z M 61 91.333 C 57.107 95.226 60.551 103.435 62.667 107.667 L 64 109 L 65.333 109 L 65.333 107.667 L 64 106.667 L 62 102.333 L 62 98 L 61.333 95.333 L 62 92 L 61 91.333 Z M 102.667 53 L 103.667 53.667 L 104 57.667 L 104.667 59.333 L 104.667 62.333 L 104 63 L 98.333 56.667 L 102.667 53 Z M 159 97.667 L 158 97.667 L 155.667 100.667 L 151 109 L 148.667 112 L 149 113 L 150 112.667 L 154 108 L 158 100 L 159 99 L 159 97.667 Z M 51.667 46 L 49.667 47.333 L 48.667 54.667 L 49.333 61 L 50.667 64 L 51.333 63.667 L 50.667 58.333 L 51 48.667 L 52 47.667 L 51.667 46 Z M 83.333 89.667 C 81.197 92.871 82.49 106 88.667 106 L 89 105 L 88 104.667 L 86 102.667 L 86 101.667 L 85 100.333 L 85 98.333 L 84 95 L 84.333 92.333 L 84 90.333 L 83.333 89.667 Z M 43.333 52.667 L 42.667 54 L 42.667 63.333 L 43.667 65.667 L 45.667 67 L 46 65.667 L 45 64.667 L 44.333 59.333 L 44.667 53.667 L 44 52.667 L 43.333 52.667 Z M 92.333 21.667 L 93.333 22 L 93.333 21 L 94 20.333 L 96.667 21.667 L 98.333 24 L 97 26 L 95.333 26 L 93.667 24.333 L 92.333 24.667 L 91.333 23 L 92.333 21.667 Z M 87.667 37.333 L 87 37.333 L 85.667 38.667 L 85.667 39.667 L 82.667 45.333 L 82 48.333 L 83 49.667 L 84 49 L 84 46.333 L 87 41.667 L 87 40.333 L 88 38.667 L 87.667 37.333 Z M 133.333 58 L 131 57.667 L 131.667 59.333 L 129.667 60.667 L 128.667 60.667 L 128 60 L 127.333 58 L 126 58.333 L 125.667 59.667 L 127.333 62 L 130.667 62.667 L 133.333 60.667 L 133.333 58 Z M 75.667 46.667 L 77.667 58 L 78.667 58.333 L 78.667 50.667 L 77.333 47.333 L 76.667 46.667 L 75.667 46.667 Z M 69 74.667 L 70.667 75.333 L 71.333 76.333 L 69.667 81 L 68.667 81.667 L 65.667 76.667 L 66.333 76 L 68 76.333 L 69 74.667 Z M 72.333 45.333 C 70.192 46.761 72.837 53.12 73.667 55.333 L 73.667 58 L 74.667 58.333 C 74.864 55.179 74.819 47.819 72.333 45.333 Z M 54.333 50.333 L 53.667 51.333 L 54 56.667 L 55.333 60.333 L 56 61 L 57 61 L 56 54 L 54.333 50.333 Z M 82.667 22.333 L 82.667 24.667 L 82 25.333 L 80.333 24.667 L 74 24.667 L 73.333 24 L 74.667 23 L 77.667 23 L 82 21.667 L 82.667 22.333 Z M 102 34 L 100 34 L 99.667 35 L 97.667 36.333 L 96.667 36.333 L 94.667 34.667 L 93.667 35 C 93.667 40.996 100.68 37.301 102 34 Z M 118.667 40 L 119.333 40.667 L 118.667 46 L 118 46.667 L 114.667 43.667 L 118.667 40 Z M 133.667 67.667 L 133.333 69.667 L 135.333 72 L 137.667 73 L 140 72.667 L 140 71.333 L 139.333 70.667 L 137 70.333 L 135 68.667 L 134.667 67.667 L 133.667 67.667 Z M 59.333 69.333 L 61 72.333 L 62.667 74 C 59.648 77.019 56.361 72.306 59.333 69.333 Z M 57.667 76 L 59.333 77 L 58.667 80.667 L 58 81.333 L 55.667 78.333 L 57.667 76 Z M 64.333 80.667 L 66.667 83.667 L 66 84.667 L 63 84.667 L 62.333 84 L 63 82 L 64.333 80.667 Z M 101.333 19.667 L 98.667 23.333 L 97.333 21.667 L 96 21 L 97.333 20 L 98.667 20 L 100.667 19 L 101.333 19.667 Z M 63 76.333 L 64.667 78 L 63.333 78.667 L 61.333 81 L 60.667 80.333 L 61 77.333 L 63 76.333 Z M 53.667 84.667 L 55.333 83 L 57 85 L 56.333 85.667 L 54.333 85.667 L 53.667 84.667 Z M 76 74.333 L 77 73.667 L 79.667 76.333 L 78.667 77 L 76 74.333 Z M 67 43.333 L 66 44.667 L 66.333 45.333 L 64.667 46.333 L 65.333 47.333 L 65 48.667 L 63.333 50.333 L 61 50.333 L 61.667 51 L 63 51 L 64.667 49.667 L 67 43.333 Z M 53.667 79 L 54.667 80.667 L 53 82.333 L 52.333 81.667 L 53.667 79 Z M 58 64.333 L 58.667 65 L 58.667 66 L 57.667 66.667 L 56.667 65.333 L 58 64.333 Z M 60 83 L 60.667 84 L 59.333 85.333 L 58.667 84.333 L 60 83 Z M 49.333 86 L 50.667 85 L 51.667 85.667 L 51 86.667 L 50 86.667 L 49.333 86 Z M 61 80.667 L 61.667 81.333 L 60.667 82.667 L 60 82 L 61 80.667 Z M 109.333 61.333 L 110 62 L 109.333 63 L 108.667 62.333 L 109.333 61.333 Z M 65.667 28.333 L 64.667 28.333 L 64 27.667 L 63.333 29.333 L 62.667 30 L 61.667 30 L 62.667 30 L 63.667 29 L 65.667 28.333 Z M 69.667 83.667 L 70.333 83 L 71 83.667 L 70.333 84.333 L 69.667 83.667 Z M 96.667 17.667 L 97.333 17 L 98 17.667 L 97.333 18.333 L 96.667 17.667 Z M 97.667 17.333 L 98.333 16.667 L 99 17.333 L 98.333 18 L 97.667 17.333 Z" fill="black" stroke="none" fill-rule="evenodd"/>
</svg>